<svg xmlns="http://www.w3.org/2000/svg" viewBox="0 0 223.99 184.97"><defs><style>.cls-1{fill:none;stroke:#1d1d1b;stroke-miterlimit:10;stroke-width:14px;}.cls-2{fill:#1d1d1b;}</style></defs><g id="Laag_2" data-name="Laag 2"><g id="Laag_1-2" data-name="Laag 1"><path class="cls-1" d="M168.33,75.75V75.1H58.14a51.14,51.14,0,1,0,37.57,85.83h32a51.14,51.14,0,1,0,40.58-85.18Z"/><path class="cls-2" d="M80.6,114.81H70.92A3.89,3.89,0,0,1,67,110.92v-9.73a3.89,3.89,0,0,0-3.89-3.89H53.31a3.89,3.89,0,0,0-3.89,3.89v9.73a3.89,3.89,0,0,1-3.89,3.89H35.85A3.89,3.89,0,0,0,32,118.7v9.83a3.89,3.89,0,0,0,3.89,3.89h9.68a3.89,3.89,0,0,1,3.89,3.89v9.63a3.89,3.89,0,0,0,3.89,3.89h9.83A3.89,3.89,0,0,0,67,145.94v-9.63a3.89,3.89,0,0,1,3.89-3.89H80.6a3.89,3.89,0,0,0,3.89-3.89V118.7A3.89,3.89,0,0,0,80.6,114.81Z"/><circle class="cls-2" cx="165.85" cy="141.96" r="8.82"/><circle class="cls-2" cx="183.28" cy="124.59" r="8.82"/><circle class="cls-2" cx="165.85" cy="107.21" r="8.82"/><circle class="cls-2" cx="148.49" cy="124.61" r="8.82"/><path class="cls-1" d="M112,64.43s2.15-42.29,52.85-32.09S217,.24,217,.24"/></g></g></svg>