<svg xmlns="http://www.w3.org/2000/svg" viewBox="0 0 288.84 215.73"><defs><style>.cls-1{fill:none;stroke:#1d1d1b;stroke-miterlimit:10;stroke-width:14px;}</style></defs><g id="Laag_2" data-name="Laag 2"><g id="Laag_1-2" data-name="Laag 1"><path class="cls-1" d="M139.46,104.73a40,40,0,0,0,38.18-28A37.29,37.29,0,1,0,161.2,31.16a40,40,0,1,0-21.74,73.57Z"/><path class="cls-1" d="M281.84,178.53A80.9,80.9,0,0,0,143.1,122a86.79,86.79,0,0,0-85.26,86.78h173.6a86.62,86.62,0,0,0-5.4-30.2Z"/><path class="cls-1" d="M231.44,208.73a86.8,86.8,0,0,0-85.7-86.79A80.9,80.9,0,0,0,7,178.53H63.24a86.62,86.62,0,0,0-5.4,30.2Z"/><path class="cls-1" d="M83.09,81.58a37.14,37.14,0,0,0,18.24-4.77A40,40,0,1,0,117.94,31,37.29,37.29,0,1,0,83.09,81.58Z"/></g></g></svg>